<svg
      width="100"
      // height="161"
      viewBox="0 0 161 161"
      fill="none"
      xmlns="http://www.w3.org/2000/svg"
    >
      <rect width="161" height="161" rx="80.5" fill="#FAD787" />
      <path
        d="M60.016 67.1751C56.6146 62.1215 62.7321 56.1072 67.7271 59.5942L80.7035 68.6533C84.4961 71.3009 89.5745 71.155 93.2088 68.2939L106.41 57.9011C111.062 54.2393 117.422 59.5033 114.694 64.7572L106.774 80.0092C105.142 83.1531 105.205 86.9081 106.942 89.9955L113.953 102.46C116.844 107.6 110.714 113.069 105.935 109.612L92.8838 100.171C89.3854 97.64 84.6943 97.5089 81.06 99.8404L68.5938 107.838C63.4703 111.124 57.5937 104.886 61.18 99.9678L67.7171 91.0026C70.3195 87.4337 70.41 82.6177 67.9437 78.9534L60.016 67.1751Z"
        fill="#1E0F40"
        stroke="#1E0F40"
        stroke-width="5"
      />
      <path
        d="M56.016 64.1751C52.6146 59.1215 58.7321 53.1072 63.7271 56.5942L76.7035 65.6533C80.4961 68.3009 85.5745 68.155 89.2088 65.2939L102.41 54.9011C107.062 51.2393 113.422 56.5033 110.694 61.7572L102.774 77.0092C101.142 80.1531 101.205 83.9081 102.942 86.9955L109.953 99.4597C112.844 104.6 106.714 110.069 101.935 106.612L88.8838 97.1708C85.3854 94.64 80.6943 94.5089 77.06 96.8404L64.5938 104.838C59.4703 108.124 53.5937 101.886 57.18 96.9678L63.7171 88.0026C66.3195 84.4337 66.41 79.6177 63.9437 75.9534L56.016 64.1751Z"
        fill="#F7C714"
        stroke="#1E0F40"
        stroke-width="5"
      />
    </svg>