<svg width="50" height="50" viewBox="0 0 50 50" fill="none" xmlns="http://www.w3.org/2000/svg">
<path d="M13.5 18.3887L5.5664 25.0001L13.5 31.6114C13.6622 31.7412 13.7969 31.9021 13.8961 32.0846C13.9954 32.2671 14.0573 32.4676 14.0781 32.6743C14.099 32.8811 14.0784 33.0899 14.0176 33.2885C13.9568 33.4872 13.8569 33.6717 13.7239 33.8314C13.5909 33.991 13.4274 34.1225 13.243 34.2182C13.0586 34.3138 12.8569 34.3718 12.6498 34.3886C12.4428 34.4054 12.2344 34.3807 12.037 34.316C11.8395 34.2513 11.657 34.1479 11.5 34.0118L2.12499 26.1993C1.94908 26.0526 1.80755 25.8691 1.71042 25.6617C1.6133 25.4543 1.56296 25.2281 1.56296 24.9991C1.56296 24.7701 1.6133 24.5438 1.71042 24.3364C1.80755 24.129 1.94908 23.9455 2.12499 23.7989L11.5 15.9864C11.8186 15.7212 12.2294 15.5934 12.6422 15.6311C13.055 15.6688 13.4359 15.869 13.7012 16.1876C13.9664 16.5061 14.0942 16.917 14.0565 17.3298C14.0187 17.7426 13.8186 18.1235 13.5 18.3887ZM47.875 23.7989L38.5 15.9864C38.3422 15.8551 38.1602 15.7561 37.9642 15.6951C37.7682 15.6342 37.5621 15.6124 37.3577 15.6311C37.1533 15.6498 36.9546 15.7085 36.7729 15.804C36.5912 15.8995 36.4301 16.0298 36.2988 16.1876C36.0336 16.5061 35.9058 16.917 35.9435 17.3298C35.9813 17.7426 36.1814 18.1235 36.5 18.3887L44.4336 25.0001L36.5 31.6114C36.3378 31.7412 36.2031 31.9021 36.1039 32.0846C36.0046 32.2671 35.9427 32.4676 35.9219 32.6743C35.901 32.8811 35.9216 33.0899 35.9824 33.2885C36.0432 33.4872 36.143 33.6717 36.276 33.8314C36.409 33.991 36.5725 34.1225 36.757 34.2182C36.9414 34.3138 37.143 34.3718 37.3501 34.3886C37.5572 34.4054 37.7656 34.3807 37.963 34.316C38.1605 34.2513 38.343 34.1479 38.5 34.0118L47.875 26.1993C48.0509 26.0526 48.1924 25.8691 48.2896 25.6617C48.3867 25.4543 48.437 25.2281 48.437 24.9991C48.437 24.7701 48.3867 24.5438 48.2896 24.3364C48.1924 24.129 48.0509 23.9455 47.875 23.7989ZM31.7832 6.3438C31.5903 6.27377 31.3855 6.24243 31.1805 6.25154C30.9755 6.26066 30.7743 6.31007 30.5884 6.39694C30.4025 6.48382 30.2356 6.60646 30.0971 6.75786C29.9586 6.90926 29.8513 7.08647 29.7812 7.27935L17.2812 41.6544C17.2109 41.8473 17.1793 42.0523 17.1883 42.2575C17.1973 42.4627 17.2466 42.6642 17.3335 42.8503C17.4204 43.0364 17.5431 43.2036 17.6947 43.3422C17.8463 43.4809 18.0237 43.5882 18.2168 43.6583C18.388 43.7191 18.5683 43.7501 18.75 43.75C19.0709 43.7501 19.384 43.6513 19.6468 43.4671C19.9095 43.283 20.1092 43.0224 20.2187 42.7208L32.7187 8.34575C32.7888 8.15288 32.8201 7.94809 32.811 7.7431C32.8019 7.5381 32.7525 7.33691 32.6656 7.15101C32.5787 6.96511 32.4561 6.79815 32.3047 6.65964C32.1533 6.52114 31.9761 6.41382 31.7832 6.3438Z" fill="black"/>
</svg>
