<svg width="50" height="50" viewBox="0 0 50 50" fill="none" xmlns="http://www.w3.org/2000/svg">
<path d="M2.08333 2.08337V22.9167H47.9167V2.08337H2.08333ZM27.0833 14.5834H8.33333V10.4167H27.0833V14.5834ZM33.3333 14.5834C32.9213 14.5834 32.5185 14.4612 32.1759 14.2323C31.8333 14.0033 31.5663 13.678 31.4086 13.2973C31.2509 12.9166 31.2096 12.4977 31.29 12.0936C31.3704 11.6895 31.5688 11.3183 31.8602 11.0269C32.1515 10.7355 32.5228 10.5371 32.9269 10.4567C33.331 10.3764 33.7499 10.4176 34.1306 10.5753C34.5113 10.733 34.8366 11 35.0656 11.3426C35.2945 11.6852 35.4167 12.088 35.4167 12.5C35.4167 13.0526 35.1972 13.5825 34.8065 13.9732C34.4158 14.3639 33.8859 14.5834 33.3333 14.5834ZM39.5833 14.5834C39.1713 14.5834 38.7685 14.4612 38.4259 14.2323C38.0833 14.0033 37.8163 13.678 37.6586 13.2973C37.5009 12.9166 37.4596 12.4977 37.54 12.0936C37.6204 11.6895 37.8188 11.3183 38.1102 11.0269C38.4015 10.7355 38.7728 10.5371 39.1769 10.4567C39.581 10.3764 39.9999 10.4176 40.3806 10.5753C40.7613 10.733 41.0866 11 41.3156 11.3426C41.5445 11.6852 41.6667 12.088 41.6667 12.5C41.6667 13.0526 41.4472 13.5825 41.0565 13.9732C40.6658 14.3639 40.1359 14.5834 39.5833 14.5834ZM47.2708 38.2709L49.6458 36.1875L47.5625 32.5834L44.5417 33.6042C43.8728 33.0404 43.1116 32.5964 42.2917 32.2917L41.6667 29.1667H37.5L36.875 32.2709C36.055 32.5756 35.2938 33.0196 34.625 33.5834L31.6042 32.5625L29.5208 36.1667L31.8958 38.25C31.7291 39.1171 31.7291 40.008 31.8958 40.875L29.5208 42.9584L31.6042 46.5625L34.625 45.5417C35.2938 46.1055 36.055 46.5496 36.875 46.8542L37.5 50H41.6667L42.2917 46.8959C43.1116 46.5912 43.8728 46.1472 44.5417 45.5834L47.5625 46.6042L49.6458 43L47.2708 40.9167C47.4375 40.0426 47.4375 39.1449 47.2708 38.2709ZM39.5833 43.75C38.7592 43.75 37.9537 43.5057 37.2684 43.0478C36.5832 42.59 36.0492 41.9392 35.7338 41.1779C35.4185 40.4165 35.3359 39.5788 35.4967 38.7705C35.6575 37.9622 36.0543 37.2198 36.6371 36.6371C37.2198 36.0544 37.9622 35.6575 38.7705 35.4968C39.5787 35.336 40.4165 35.4185 41.1778 35.7339C41.9392 36.0492 42.5899 36.5833 43.0478 37.2685C43.5056 37.9537 43.75 38.7593 43.75 39.5834C43.7467 40.6874 43.3067 41.7453 42.526 42.526C41.7453 43.3067 40.6874 43.7467 39.5833 43.75Z" fill="black"/>
<path d="M25 39.5834H8.33333V35.4167H25.6125C26.6594 31.9267 28.9734 28.9543 32.1 27.0834H2.08333V47.9167H27.625C25.9143 45.4748 24.9977 42.5649 25 39.5834Z" fill="black"/>
</svg>
