<svg width="50" height="50" viewBox="0 0 50 50" fill="none" xmlns="http://www.w3.org/2000/svg">
<path d="M18.9583 19.2708L8.4375 13.3854L25 4.16663L41.5625 13.3854L31.0417 19.2708C30.2431 18.4375 29.3229 17.7951 28.2812 17.3437C27.2396 16.8923 26.1458 16.6666 25 16.6666C23.8542 16.6666 22.7604 16.8923 21.7188 17.3437C20.6771 17.7951 19.7569 18.4375 18.9583 19.2708ZM22.9167 44.6875L6.25 35.4166V16.927L16.9271 22.9166C16.8229 23.2638 16.7535 23.6027 16.7187 23.9333C16.684 24.2638 16.6667 24.6194 16.6667 25C16.6667 26.9097 17.2396 28.6111 18.3854 30.1041C19.5312 31.5972 21.0417 32.5868 22.9167 33.0729V44.6875ZM25 29.1666C23.8542 29.1666 22.8729 28.759 22.0562 27.9437C21.2396 27.1284 20.8319 26.1472 20.8333 25C20.8333 23.8541 21.2417 22.8729 22.0583 22.0562C22.875 21.2395 23.8556 20.8319 25 20.8333C26.1458 20.8333 27.1271 21.2416 27.9437 22.0583C28.7604 22.875 29.1681 23.8555 29.1667 25C29.1667 26.1458 28.7583 27.127 27.9417 27.9437C27.125 28.7604 26.1444 29.168 25 29.1666ZM27.0833 44.6875V33.0729C28.9583 32.5868 30.4688 31.5972 31.6146 30.1041C32.7604 28.6111 33.3333 26.9097 33.3333 25C33.3333 24.618 33.316 24.2618 33.2812 23.9312C33.2465 23.6007 33.1771 23.2625 33.0729 22.9166L43.75 16.927V35.4166L27.0833 44.6875Z" fill="black"/>
</svg>
